<svg xmlns="http://www.w3.org/2000/svg" viewBox="0 0 120 120">
  <!-- Concept: Minimalist - folder with clock badge -->

  <!-- Folder back -->
  <path d="M 15 35 L 15 95 Q 15 100 20 100 L 100 100 Q 105 100 105 95 L 105 45 Q 105 40 100 40 L 55 40 L 48 30 Q 46 27 42 27 L 20 27 Q 15 27 15 32 Z" fill="#2563eb"/>

  <!-- Folder front flap -->
  <path d="M 15 50 Q 15 45 20 45 L 100 45 Q 105 45 105 50 L 105 95 Q 105 100 100 100 L 20 100 Q 15 100 15 95 Z" fill="#3b82f6"/>

  <!-- Clock badge -->
  <circle cx="90" cy="35" r="22" fill="white" stroke="#1e40af" stroke-width="2"/>
  <circle cx="90" cy="35" r="17" fill="none" stroke="#2563eb" stroke-width="1.5"/>

  <!-- Clock hands -->
  <line x1="90" y1="35" x2="90" y2="24" stroke="#1e40af" stroke-width="2" stroke-linecap="round"/>
  <line x1="90" y1="35" x2="99" y2="31" stroke="#1e40af" stroke-width="1.5" stroke-linecap="round"/>
  <circle cx="90" cy="35" r="2" fill="#1e40af"/>
</svg>
